<svg xmlns="http://www.w3.org/2000/svg" version="1.1" width="500" height="250">
<line x1="0" y1="0" x2="0" y2="200" style="stroke:white;stroke-width:5" shape-rendering="crispEdges"/>
<line x1="5" y1="0" x2="5" y2="200" style="stroke:white;stroke-width:5" shape-rendering="crispEdges"/>
<line x1="10" y1="0" x2="10" y2="200" style="stroke:white;stroke-width:5" shape-rendering="crispEdges"/>
<line x1="15" y1="0" x2="15" y2="200" style="stroke:white;stroke-width:5" shape-rendering="crispEdges"/>
<line x1="20" y1="0" x2="20" y2="200" style="stroke:white;stroke-width:5" shape-rendering="crispEdges"/>
<line x1="25" y1="0" x2="25" y2="200" style="stroke:white;stroke-width:5" shape-rendering="crispEdges"/>
<line x1="30" y1="0" x2="30" y2="200" style="stroke:white;stroke-width:5" shape-rendering="crispEdges"/>
<line x1="35" y1="0" x2="35" y2="225" style="stroke:black;stroke-width:5" shape-rendering="crispEdges"/>
<line x1="40" y1="0" x2="40" y2="225" style="stroke:white;stroke-width:5" shape-rendering="crispEdges"/>
<line x1="45" y1="0" x2="45" y2="225" style="stroke:black;stroke-width:5" shape-rendering="crispEdges"/>
<line x1="50" y1="0" x2="50" y2="200" style="stroke:white;stroke-width:5" shape-rendering="crispEdges"/>
<line x1="55" y1="0" x2="55" y2="200" style="stroke:white;stroke-width:5" shape-rendering="crispEdges"/>
<line x1="60" y1="0" x2="60" y2="200" style="stroke:black;stroke-width:5" shape-rendering="crispEdges"/>
<line x1="65" y1="0" x2="65" y2="200" style="stroke:white;stroke-width:5" shape-rendering="crispEdges"/>
<line x1="70" y1="0" x2="70" y2="200" style="stroke:white;stroke-width:5" shape-rendering="crispEdges"/>
<line x1="75" y1="0" x2="75" y2="200" style="stroke:black;stroke-width:5" shape-rendering="crispEdges"/>
<line x1="80" y1="0" x2="80" y2="200" style="stroke:black;stroke-width:5" shape-rendering="crispEdges"/>
<line x1="85" y1="0" x2="85" y2="200" style="stroke:white;stroke-width:5" shape-rendering="crispEdges"/>
<line x1="90" y1="0" x2="90" y2="200" style="stroke:black;stroke-width:5" shape-rendering="crispEdges"/>
<line x1="95" y1="0" x2="95" y2="200" style="stroke:black;stroke-width:5" shape-rendering="crispEdges"/>
<line x1="100" y1="0" x2="100" y2="200" style="stroke:black;stroke-width:5" shape-rendering="crispEdges"/>
<line x1="105" y1="0" x2="105" y2="200" style="stroke:black;stroke-width:5" shape-rendering="crispEdges"/>
<line x1="110" y1="0" x2="110" y2="200" style="stroke:white;stroke-width:5" shape-rendering="crispEdges"/>
<line x1="115" y1="0" x2="115" y2="200" style="stroke:black;stroke-width:5" shape-rendering="crispEdges"/>
<line x1="120" y1="0" x2="120" y2="200" style="stroke:white;stroke-width:5" shape-rendering="crispEdges"/>
<line x1="125" y1="0" x2="125" y2="200" style="stroke:white;stroke-width:5" shape-rendering="crispEdges"/>
<line x1="130" y1="0" x2="130" y2="200" style="stroke:black;stroke-width:5" shape-rendering="crispEdges"/>
<line x1="135" y1="0" x2="135" y2="200" style="stroke:black;stroke-width:5" shape-rendering="crispEdges"/>
<line x1="140" y1="0" x2="140" y2="200" style="stroke:black;stroke-width:5" shape-rendering="crispEdges"/>
<line x1="145" y1="0" x2="145" y2="200" style="stroke:white;stroke-width:5" shape-rendering="crispEdges"/>
<line x1="150" y1="0" x2="150" y2="200" style="stroke:black;stroke-width:5" shape-rendering="crispEdges"/>
<line x1="155" y1="0" x2="155" y2="200" style="stroke:white;stroke-width:5" shape-rendering="crispEdges"/>
<line x1="160" y1="0" x2="160" y2="200" style="stroke:black;stroke-width:5" shape-rendering="crispEdges"/>
<line x1="165" y1="0" x2="165" y2="200" style="stroke:black;stroke-width:5" shape-rendering="crispEdges"/>
<line x1="170" y1="0" x2="170" y2="200" style="stroke:white;stroke-width:5" shape-rendering="crispEdges"/>
<line x1="175" y1="0" x2="175" y2="200" style="stroke:white;stroke-width:5" shape-rendering="crispEdges"/>
<line x1="180" y1="0" x2="180" y2="200" style="stroke:white;stroke-width:5" shape-rendering="crispEdges"/>
<line x1="185" y1="0" x2="185" y2="200" style="stroke:black;stroke-width:5" shape-rendering="crispEdges"/>
<line x1="190" y1="0" x2="190" y2="200" style="stroke:white;stroke-width:5" shape-rendering="crispEdges"/>
<line x1="195" y1="0" x2="195" y2="200" style="stroke:white;stroke-width:5" shape-rendering="crispEdges"/>
<line x1="200" y1="0" x2="200" y2="200" style="stroke:white;stroke-width:5" shape-rendering="crispEdges"/>
<line x1="205" y1="0" x2="205" y2="200" style="stroke:white;stroke-width:5" shape-rendering="crispEdges"/>
<line x1="210" y1="0" x2="210" y2="200" style="stroke:black;stroke-width:5" shape-rendering="crispEdges"/>
<line x1="215" y1="0" x2="215" y2="200" style="stroke:white;stroke-width:5" shape-rendering="crispEdges"/>
<line x1="220" y1="0" x2="220" y2="200" style="stroke:black;stroke-width:5" shape-rendering="crispEdges"/>
<line x1="225" y1="0" x2="225" y2="200" style="stroke:white;stroke-width:5" shape-rendering="crispEdges"/>
<line x1="230" y1="0" x2="230" y2="200" style="stroke:white;stroke-width:5" shape-rendering="crispEdges"/>
<line x1="235" y1="0" x2="235" y2="200" style="stroke:black;stroke-width:5" shape-rendering="crispEdges"/>
<line x1="240" y1="0" x2="240" y2="200" style="stroke:white;stroke-width:5" shape-rendering="crispEdges"/>
<line x1="245" y1="0" x2="245" y2="200" style="stroke:white;stroke-width:5" shape-rendering="crispEdges"/>
<line x1="250" y1="0" x2="250" y2="200" style="stroke:white;stroke-width:5" shape-rendering="crispEdges"/>
<line x1="255" y1="0" x2="255" y2="200" style="stroke:black;stroke-width:5" shape-rendering="crispEdges"/>
<line x1="260" y1="0" x2="260" y2="225" style="stroke:white;stroke-width:5" shape-rendering="crispEdges"/>
<line x1="265" y1="0" x2="265" y2="225" style="stroke:black;stroke-width:5" shape-rendering="crispEdges"/>
<line x1="270" y1="0" x2="270" y2="225" style="stroke:white;stroke-width:5" shape-rendering="crispEdges"/>
<line x1="275" y1="0" x2="275" y2="225" style="stroke:black;stroke-width:5" shape-rendering="crispEdges"/>
<line x1="280" y1="0" x2="280" y2="225" style="stroke:white;stroke-width:5" shape-rendering="crispEdges"/>
<line x1="285" y1="0" x2="285" y2="200" style="stroke:black;stroke-width:5" shape-rendering="crispEdges"/>
<line x1="290" y1="0" x2="290" y2="200" style="stroke:white;stroke-width:5" shape-rendering="crispEdges"/>
<line x1="295" y1="0" x2="295" y2="200" style="stroke:white;stroke-width:5" shape-rendering="crispEdges"/>
<line x1="300" y1="0" x2="300" y2="200" style="stroke:black;stroke-width:5" shape-rendering="crispEdges"/>
<line x1="305" y1="0" x2="305" y2="200" style="stroke:white;stroke-width:5" shape-rendering="crispEdges"/>
<line x1="310" y1="0" x2="310" y2="200" style="stroke:white;stroke-width:5" shape-rendering="crispEdges"/>
<line x1="315" y1="0" x2="315" y2="200" style="stroke:white;stroke-width:5" shape-rendering="crispEdges"/>
<line x1="320" y1="0" x2="320" y2="200" style="stroke:black;stroke-width:5" shape-rendering="crispEdges"/>
<line x1="325" y1="0" x2="325" y2="200" style="stroke:black;stroke-width:5" shape-rendering="crispEdges"/>
<line x1="330" y1="0" x2="330" y2="200" style="stroke:black;stroke-width:5" shape-rendering="crispEdges"/>
<line x1="335" y1="0" x2="335" y2="200" style="stroke:white;stroke-width:5" shape-rendering="crispEdges"/>
<line x1="340" y1="0" x2="340" y2="200" style="stroke:black;stroke-width:5" shape-rendering="crispEdges"/>
<line x1="345" y1="0" x2="345" y2="200" style="stroke:white;stroke-width:5" shape-rendering="crispEdges"/>
<line x1="350" y1="0" x2="350" y2="200" style="stroke:white;stroke-width:5" shape-rendering="crispEdges"/>
<line x1="355" y1="0" x2="355" y2="200" style="stroke:black;stroke-width:5" shape-rendering="crispEdges"/>
<line x1="360" y1="0" x2="360" y2="200" style="stroke:white;stroke-width:5" shape-rendering="crispEdges"/>
<line x1="365" y1="0" x2="365" y2="200" style="stroke:black;stroke-width:5" shape-rendering="crispEdges"/>
<line x1="370" y1="0" x2="370" y2="200" style="stroke:white;stroke-width:5" shape-rendering="crispEdges"/>
<line x1="375" y1="0" x2="375" y2="200" style="stroke:white;stroke-width:5" shape-rendering="crispEdges"/>
<line x1="380" y1="0" x2="380" y2="200" style="stroke:white;stroke-width:5" shape-rendering="crispEdges"/>
<line x1="385" y1="0" x2="385" y2="200" style="stroke:white;stroke-width:5" shape-rendering="crispEdges"/>
<line x1="390" y1="0" x2="390" y2="200" style="stroke:black;stroke-width:5" shape-rendering="crispEdges"/>
<line x1="395" y1="0" x2="395" y2="200" style="stroke:white;stroke-width:5" shape-rendering="crispEdges"/>
<line x1="400" y1="0" x2="400" y2="200" style="stroke:white;stroke-width:5" shape-rendering="crispEdges"/>
<line x1="405" y1="0" x2="405" y2="200" style="stroke:black;stroke-width:5" shape-rendering="crispEdges"/>
<line x1="410" y1="0" x2="410" y2="200" style="stroke:black;stroke-width:5" shape-rendering="crispEdges"/>
<line x1="415" y1="0" x2="415" y2="200" style="stroke:black;stroke-width:5" shape-rendering="crispEdges"/>
<line x1="420" y1="0" x2="420" y2="200" style="stroke:white;stroke-width:5" shape-rendering="crispEdges"/>
<line x1="425" y1="0" x2="425" y2="200" style="stroke:black;stroke-width:5" shape-rendering="crispEdges"/>
<line x1="430" y1="0" x2="430" y2="200" style="stroke:white;stroke-width:5" shape-rendering="crispEdges"/>
<line x1="435" y1="0" x2="435" y2="200" style="stroke:white;stroke-width:5" shape-rendering="crispEdges"/>
<line x1="440" y1="0" x2="440" y2="200" style="stroke:black;stroke-width:5" shape-rendering="crispEdges"/>
<line x1="445" y1="0" x2="445" y2="200" style="stroke:white;stroke-width:5" shape-rendering="crispEdges"/>
<line x1="450" y1="0" x2="450" y2="200" style="stroke:white;stroke-width:5" shape-rendering="crispEdges"/>
<line x1="455" y1="0" x2="455" y2="200" style="stroke:white;stroke-width:5" shape-rendering="crispEdges"/>
<line x1="460" y1="0" x2="460" y2="200" style="stroke:black;stroke-width:5" shape-rendering="crispEdges"/>
<line x1="465" y1="0" x2="465" y2="200" style="stroke:white;stroke-width:5" shape-rendering="crispEdges"/>
<line x1="470" y1="0" x2="470" y2="200" style="stroke:white;stroke-width:5" shape-rendering="crispEdges"/>
<line x1="475" y1="0" x2="475" y2="200" style="stroke:black;stroke-width:5" shape-rendering="crispEdges"/>
<line x1="480" y1="0" x2="480" y2="200" style="stroke:white;stroke-width:5" shape-rendering="crispEdges"/>
<line x1="485" y1="0" x2="485" y2="200" style="stroke:white;stroke-width:5" shape-rendering="crispEdges"/>
<line x1="490" y1="0" x2="490" y2="200" style="stroke:white;stroke-width:5" shape-rendering="crispEdges"/>
<line x1="495" y1="0" x2="495" y2="225" style="stroke:black;stroke-width:5" shape-rendering="crispEdges"/>
<line x1="500" y1="0" x2="500" y2="225" style="stroke:white;stroke-width:5" shape-rendering="crispEdges"/>
<line x1="505" y1="0" x2="505" y2="225" style="stroke:black;stroke-width:5" shape-rendering="crispEdges"/>
<text x="0" y="245" font-size="45" fill="black">1</text>
<text x="70" y="245" font-size="45" fill="black">2</text>
<text x="100" y="245" font-size="45" fill="black">3</text>
<text x="130" y="245" font-size="45" fill="black">4</text>
<text x="160" y="245" font-size="45" fill="black">5</text>
<text x="190" y="245" font-size="45" fill="black">6</text>
<text x="220" y="245" font-size="45" fill="black">7</text>
<text x="300" y="245" font-size="45" fill="black">8</text>
<text x="330" y="245" font-size="45" fill="black">9</text>
<text x="360" y="245" font-size="45" fill="black">6</text>
<text x="390" y="245" font-size="45" fill="black">5</text>
<text x="420" y="245" font-size="45" fill="black">8</text>
<text x="450" y="245" font-size="45" fill="black">8</text>
</svg>